HIERARCHY
ROOT Hips
{
  OFFSET 5.80788e-005 67.184 3.4734
  CHANNELS 6 Xposition Yposition Zposition Zrotation Xrotation Yrotation
  JOINT Chest
  {
    OFFSET 0 8.7983 -4.7612
    CHANNELS 6 Xposition Yposition Zposition Zrotation Xrotation Yrotation
    JOINT Chest2
    {
      OFFSET 0 8.0291 0.4195
      CHANNELS 6 Xposition Yposition Zposition Zrotation Xrotation Yrotation
      JOINT Chest3
      {
        OFFSET 0 9.9351 -2.2114
        CHANNELS 6 Xposition Yposition Zposition Zrotation Xrotation Yrotation
        JOINT Neck
        {
          OFFSET 0 22.3885 -0.4656
          CHANNELS 6 Xposition Yposition Zposition Zrotation Xrotation Yrotation
          JOINT Head
          {
            OFFSET -0.0001 12.643 3.4389
            CHANNELS 6 Xposition Yposition Zposition Zrotation Xrotation Yrotation
            End Site
            {
              OFFSET 0.0001 17.6655 0.5274
            }
          }
        }
        JOINT LeftCollar
        {
          OFFSET 2.2603 21.606 7.4023
          CHANNELS 6 Xposition Yposition Zposition Zrotation Xrotation Yrotation
          JOINT LeftShoulder
          {
            OFFSET 13.5163 -1.1332 -5.0146
            CHANNELS 6 Xposition Yposition Zposition Zrotation Xrotation Yrotation
            JOINT LeftElbow
            {
              OFFSET -0.0995 -28.05 -0.2431
              CHANNELS 6 Xposition Yposition Zposition Zrotation Xrotation Yrotation
              JOINT LeftWrist
              {
                OFFSET 0.0679 -23.3996 -0.1402
                CHANNELS 6 Xposition Yposition Zposition Zrotation Xrotation Yrotation
                JOINT LeftFinger1
                {
                  OFFSET 0.7932 -9.069 2.5189
                  CHANNELS 6 Xposition Yposition Zposition Zrotation Xrotation Yrotation
                  JOINT LeftFinger11
                  {
                    OFFSET -0.8272 -3.3923 0.5977
                    CHANNELS 6 Xposition Yposition Zposition Zrotation Xrotation Yrotation
                    JOINT LeftFinger12
                    {
                      OFFSET -0.5649 -2.3158 0.4082
                      CHANNELS 6 Xposition Yposition Zposition Zrotation Xrotation Yrotation
                      End Site
                      {
                        OFFSET -0.4919 -1.6479 0.2673
                      }
                    }
                  }
                }
                JOINT LeftFinger2
                {
                  OFFSET 0.9159 -9.2044 0.2193
                  CHANNELS 6 Xposition Yposition Zposition Zrotation Xrotation Yrotation
                  JOINT LeftFinger21
                  {
                    OFFSET 0.0117 -4.1944 -0.0248
                    CHANNELS 6 Xposition Yposition Zposition Zrotation Xrotation Yrotation
                    JOINT LeftFinger22
                    {
                      OFFSET 0.0071 -2.3249 -0.0142
                      CHANNELS 6 Xposition Yposition Zposition Zrotation Xrotation Yrotation
                      End Site
                      {
                        OFFSET -0.1475 -2.0882 0.0028
                      }
                    }
                  }
                }
                JOINT LeftFinger3
                {
                  OFFSET 0.6113 -8.7231 -2.0637
                  CHANNELS 6 Xposition Yposition Zposition Zrotation Xrotation Yrotation
                  JOINT LeftFinger31
                  {
                    OFFSET -0.1927 -3.8059 -0.2383
                    CHANNELS 6 Xposition Yposition Zposition Zrotation Xrotation Yrotation
                    JOINT LeftFinger32
                    {
                      OFFSET -0.1091 -2.1688 -0.1362
                      CHANNELS 6 Xposition Yposition Zposition Zrotation Xrotation Yrotation
                      End Site
                      {
                        OFFSET -0.2358 -1.9176 -0.0906
                      }
                    }
                  }
                }
                JOINT LeftFinger4
                {
                  OFFSET -0.6151 -8.0947 -3.5641
                  CHANNELS 6 Xposition Yposition Zposition Zrotation Xrotation Yrotation
                  JOINT LeftFinger41
                  {
                    OFFSET -0.4882 -2.341 -0.6462
                    CHANNELS 6 Xposition Yposition Zposition Zrotation Xrotation Yrotation
                    JOINT LeftFinger42
                    {
                      OFFSET -0.3575 -1.7167 -0.4742
                      CHANNELS 6 Xposition Yposition Zposition Zrotation Xrotation Yrotation
                      End Site
                      {
                        OFFSET -0.4187 -1.5237 -0.3496
                      }
                    }
                  }
                }
                JOINT LeftFinger0
                {
                  OFFSET -1.42 -1.8761 1.4223
                  CHANNELS 6 Xposition Yposition Zposition Zrotation Xrotation Yrotation
                  JOINT LeftFinger01
                  {
                    OFFSET -1.1471 -3.4929 2.6334
                    CHANNELS 6 Xposition Yposition Zposition Zrotation Xrotation Yrotation
                    JOINT LeftFinger02
                    {
                      OFFSET -0.823 -2.3 1.6571
                      CHANNELS 6 Xposition Yposition Zposition Zrotation Xrotation Yrotation
                      End Site
                      {
                        OFFSET -0.5822 -1.6914 1.1582
                      }
                    }
                  }
                }
              }
            }
          }
        }
        JOINT RightCollar
        {
          OFFSET -2.2603 21.606 7.4023
          CHANNELS 6 Xposition Yposition Zposition Zrotation Xrotation Yrotation
          JOINT RightShoulder
          {
            OFFSET -13.5187 -1.1334 -5.0155
            CHANNELS 6 Xposition Yposition Zposition Zrotation Xrotation Yrotation
            JOINT RightElbow
            {
              OFFSET 0.0994 -28.0499 -0.2431
              CHANNELS 6 Xposition Yposition Zposition Zrotation Xrotation Yrotation
              JOINT RightWrist
              {
                OFFSET -0.0679 -23.3996 -0.1402
                CHANNELS 6 Xposition Yposition Zposition Zrotation Xrotation Yrotation
                JOINT RightFinger1
                {
                  OFFSET -0.7932 -9.0691 2.5189
                  CHANNELS 6 Xposition Yposition Zposition Zrotation Xrotation Yrotation
                  JOINT RightFinger11
                  {
                    OFFSET 0.8272 -3.3923 0.5977
                    CHANNELS 6 Xposition Yposition Zposition Zrotation Xrotation Yrotation
                    JOINT RightFinger12
                    {
                      OFFSET 0.565 -2.3158 0.4082
                      CHANNELS 6 Xposition Yposition Zposition Zrotation Xrotation Yrotation
                      End Site
                      {
                        OFFSET 0.4919 -1.6479 0.2673
                      }
                    }
                  }
                }
                JOINT RightFinger2
                {
                  OFFSET -0.916 -9.2044 0.2193
                  CHANNELS 6 Xposition Yposition Zposition Zrotation Xrotation Yrotation
                  JOINT RightFinger21
                  {
                    OFFSET -0.0117 -4.1944 -0.0248
                    CHANNELS 6 Xposition Yposition Zposition Zrotation Xrotation Yrotation
                    JOINT RightFinger22
                    {
                      OFFSET -0.0071 -2.3249 -0.0142
                      CHANNELS 6 Xposition Yposition Zposition Zrotation Xrotation Yrotation
                      End Site
                      {
                        OFFSET 0.1475 -2.0882 0.0028
                      }
                    }
                  }
                }
                JOINT RightFinger3
                {
                  OFFSET -0.6113 -8.7231 -2.0637
                  CHANNELS 6 Xposition Yposition Zposition Zrotation Xrotation Yrotation
                  JOINT RightFinger31
                  {
                    OFFSET 0.1927 -3.8059 -0.2383
                    CHANNELS 6 Xposition Yposition Zposition Zrotation Xrotation Yrotation
                    JOINT RightFinger32
                    {
                      OFFSET 0.1091 -2.1688 -0.1362
                      CHANNELS 6 Xposition Yposition Zposition Zrotation Xrotation Yrotation
                      End Site
                      {
                        OFFSET 0.2358 -1.9176 -0.0906
                      }
                    }
                  }
                }
                JOINT RightFinger4
                {
                  OFFSET 0.6151 -8.0947 -3.564
                  CHANNELS 6 Xposition Yposition Zposition Zrotation Xrotation Yrotation
                  JOINT RightFinger41
                  {
                    OFFSET 0.4882 -2.341 -0.6462
                    CHANNELS 6 Xposition Yposition Zposition Zrotation Xrotation Yrotation
                    JOINT RightFinger42
                    {
                      OFFSET 0.3574 -1.7166 -0.4742
                      CHANNELS 6 Xposition Yposition Zposition Zrotation Xrotation Yrotation
                      End Site
                      {
                        OFFSET 0.4187 -1.5237 -0.3496
                      }
                    }
                  }
                }
                JOINT RightFinger0
                {
                  OFFSET 1.4199 -1.8761 1.4221
                  CHANNELS 6 Xposition Yposition Zposition Zrotation Xrotation Yrotation
                  JOINT RightFinger01
                  {
                    OFFSET 1.1472 -3.4929 2.6336
                    CHANNELS 6 Xposition Yposition Zposition Zrotation Xrotation Yrotation
                    JOINT RightFinger02
                    {
                      OFFSET 0.8229 -2.3 1.6571
                      CHANNELS 6 Xposition Yposition Zposition Zrotation Xrotation Yrotation
                      End Site
                      {
                        OFFSET 0.5822 -1.6914 1.1582
                      }
                    }
                  }
                }
              }
            }
          }
        }
      }
    }
  }
  JOINT RightHip
  {
    OFFSET -9.412 3.9771 -0.7758
    CHANNELS 6 Xposition Yposition Zposition Zrotation Xrotation Yrotation
    JOINT RightKnee
    {
      OFFSET -0.7531 -40.938 0
      CHANNELS 6 Xposition Yposition Zposition Zrotation Xrotation Yrotation
      JOINT RightAnkle
      {
        OFFSET 0 -40.1986 0
        CHANNELS 6 Xposition Yposition Zposition Zrotation Xrotation Yrotation
        JOINT RightToe
        {
          OFFSET 0 -4.4182 9.239
          CHANNELS 6 Xposition Yposition Zposition Zrotation Xrotation Yrotation
          End Site
          {
            OFFSET 0 0 6.1981
          }
        }
      }
    }
  }
  JOINT LeftHip
  {
    OFFSET 9.4119 3.9773 -0.7758
    CHANNELS 6 Xposition Yposition Zposition Zrotation Xrotation Yrotation
    JOINT LeftKnee
    {
      OFFSET 0.7532 -40.9383 0
      CHANNELS 6 Xposition Yposition Zposition Zrotation Xrotation Yrotation
      JOINT LeftAnkle
      {
        OFFSET 0 -40.1986 0
        CHANNELS 6 Xposition Yposition Zposition Zrotation Xrotation Yrotation
        JOINT LeftToe
        {
          OFFSET 0 -4.4182 9.239
          CHANNELS 6 Xposition Yposition Zposition Zrotation Xrotation Yrotation
          End Site
          {
            OFFSET 0 0 6.1981
          }
        }
      }
    }
  }
}
MOTION
Frames:	4
Frame Time:	0.0333333
5.80788e-005 67.184 3.4734 0 0 -0 0 8.7983 -4.7612 0 0 -0 0 8.0291 0.4195 0 0 -0 0 9.9351 -2.2114 0 0 -0 0 22.3885 -0.4656 0 0 -0 -0.0001 12.643 3.4389 0 0 -0 2.2603 21.606 7.4023 0 0 -12.5014 13.5163 -1.1332 -5.0146 88.1196 14.2451 10.6914 -0.0995 -28.05 -0.2431 -0.00160068 -0.00239207 0.000740045 0.0679 -23.3996 -0.1402 -8.4365e-005 7.00714e-005 -9.52055e-007 0.7932 -9.069 2.5189 9.93923e-017 -1.98785e-016 -1.59028e-015 -0.8272 -3.3923 0.5977 9.93923e-017 -5.96354e-016 -1.59028e-015 -0.5649 -2.3158 0.4082 -9.93923e-017 -5.96354e-016 -1.59028e-015 0.9159 -9.2044 0.2193 9.93923e-017 -1.98785e-016 -1.59028e-015 0.0117 -4.1944 -0.0248 -0.0128176 0.00232552 8.52707e-005 0.0071 -2.3249 -0.0142 9.93923e-017 5.96354e-016 -0 0.6113 -8.7231 -2.0637 9.93923e-017 -1.98785e-016 -1.59028e-015 -0.1927 -3.8059 -0.2383 -0.0160551 0.00299681 0.000857156 -0.1091 -2.1688 -0.1362 -2.48481e-016 0 3.18055e-015 -0.6151 -8.0947 -3.5641 9.93923e-017 -1.98785e-016 -1.59028e-015 -0.4882 -2.341 -0.6462 -0.0125865 0.0031206 0.00282719 -0.3575 -1.7167 -0.4742 0 1.98785e-016 -0 -1.42 -1.8761 1.4223 9.93923e-017 -1.98785e-016 -1.59028e-015 -1.1471 -3.4929 2.6334 9.93923e-017 -5.96354e-016 -1.59028e-015 -0.823 -2.3 1.6571 -9.93923e-017 -5.96354e-016 -1.59028e-015 -2.2603 21.606 7.4023 -0.865644 0.16582 7.03859 -13.5187 -1.1334 -5.0155 -88.0329 10.2057 -10.5567 0.0994 -28.0499 -0.2431 0.0015593 -0.00248883 -0.000788628 -0.0679 -23.3996 -0.1402 7.87605e-005 4.10553e-005 1.24965e-005 -0.7932 -9.0691 2.5189 -3.97569e-016 -7.95139e-016 3.18055e-015 0.8272 -3.3923 0.5977 -1.98785e-016 -3.97569e-016 3.18055e-015 0.565 -2.3158 0.4082 -1.98785e-016 0 3.18055e-015 -0.916 -9.2044 0.2193 -3.97569e-016 -7.95139e-016 3.18055e-015 -0.0117 -4.1944 -0.0248 0.0129473 0.00231697 -8.70038e-005 -0.0071 -2.3249 -0.0142 9.93923e-017 -7.95139e-016 1.59028e-015 -0.6113 -8.7231 -2.0637 -3.97569e-016 -7.95139e-016 3.18055e-015 0.1927 -3.8059 -0.2383 0.0163314 0.00303369 -0.000872333 0.1091 -2.1688 -0.1362 3.97569e-016 7.95139e-016 -3.18055e-015 0.6151 -8.0947 -3.564 -3.97569e-016 -7.95139e-016 3.18055e-015 0.4882 -2.341 -0.6462 0.0145763 0.00367772 -0.00326275 0.3574 -1.7166 -0.4742 9.93923e-017 -3.97569e-016 -0 1.4199 -1.8761 1.4221 -3.97569e-016 -7.95139e-016 3.18055e-015 1.1472 -3.4929 2.6336 -1.98785e-016 -3.97569e-016 3.18055e-015 0.8229 -2.3 1.6571 -1.98785e-016 0 3.18055e-015 -9.412 3.9771 -0.7758 3.42485 1.36937 -0.0640303 -0.7531 -40.938 0 0.000136572 0.69354 0.00145564 1.77636e-015 -40.1986 -1.11022e-016 -3.42573 -2.06297 -0.0607933 8.88178e-016 -4.4182 9.239 -3.19502e-024 0 -1.48106e-024 9.4119 3.9773 -0.7758 -3.42498 1.36123 0.0639712 0.7532 -40.9383 2.22045e-016 -6.769e-005 0.712612 -0.0012277 8.88179e-016 -40.1986 0 3.42582 -2.07388 0.0612819 -8.88178e-016 -4.4182 9.239 2.55305e-023 0 -2.31416e-026 
0.890619 30.9963 14.8676 8.45566e-009 34.5508 3.93923e-008 1.11022e-016 8.7983 -4.7612 0.37678 0.0412869 -0.499712 0 8.0291 0.4195 0.753904 0.079228 -0.999685 0 9.9351 -2.2114 0.753905 0.0792478 -0.999686 0 22.3885 -0.4656 7.90086e-005 0.20839 -0.000103937 -0.0001 12.643 3.4389 -4.63273e-007 0.195601 6.19239e-007 2.2603 21.606 7.4023 -22.9547 31.8452 -17.9686 13.5163 -1.1332 -5.0146 56.7266 -24.4242 87.0248 -0.0995 -28.05 -0.2431 -99.7993 -3.41684 10.6209 0.0679 -23.3996 -0.1402 8.18209 -46.3529 -141.713 0.7932 -9.069 2.5189 2.05765e-007 2.13364e-006 -5.82239e-006 -0.8272 -3.3923 0.5977 -1.40341e-006 -6.63271e-007 1.58953e-006 -0.5649 -2.3158 0.4082 3.18055e-015 4.77083e-015 -9.54166e-015 0.9159 -9.2044 0.2193 2.05765e-007 2.13364e-006 -5.82239e-006 0.0117 -4.1944 -0.0248 -0.012824 0.0023176 8.65204e-005 0.0071 -2.3249 -0.0142 3.18055e-015 -4.77083e-015 7.15625e-015 0.6113 -8.7231 -2.0637 2.05765e-007 2.13364e-006 -5.82239e-006 -0.1927 -3.8059 -0.2383 -0.0160686 0.00298839 0.000855358 -0.1091 -2.1688 -0.1362 0 0 -2.38542e-015 -0.6151 -8.0947 -3.5641 2.05765e-007 2.13364e-006 -5.82239e-006 -0.4882 -2.341 -0.6462 -0.0125834 0.00311964 0.0028281 -0.3575 -1.7167 -0.4742 -6.60172e-007 7.18311e-006 -1.66627e-007 -1.42 -1.8761 1.4223 2.05765e-007 2.13364e-006 -5.82239e-006 -1.1471 -3.4929 2.6334 -1.40341e-006 -6.63271e-007 1.58953e-006 -0.823 -2.3 1.6571 3.18055e-015 4.77083e-015 -9.54166e-015 -2.2603 21.606 7.4023 21.029 29.7829 13.2138 -13.5187 -1.1334 -5.0155 -53.3477 -27.9021 -83.2683 0.0994 -28.0499 -0.2431 99.6153 -2.03394 -9.33868 -0.0679 -23.3996 -0.1402 -7.74403 -42.669 143.042 -0.7932 -9.0691 2.5189 3.18055e-015 4.77083e-015 3.18055e-015 0.8272 -3.3923 0.5977 -6.36111e-015 3.18055e-015 1.59028e-015 0.565 -2.3158 0.4082 3.18055e-015 1.59028e-015 -2.38542e-015 -0.916 -9.2044 0.2193 3.18055e-015 4.77083e-015 3.18055e-015 -0.0117 -4.1944 -0.0248 0.0129592 0.00231818 -9.2459e-005 -0.0071 -2.3249 -0.0142 3.18055e-015 1.59028e-015 3.18055e-015 -0.6113 -8.7231 -2.0637 3.18055e-015 4.77083e-015 3.18055e-015 0.1927 -3.8059 -0.2383 0.0163241 0.00302644 -0.000874587 0.1091 -2.1688 -0.1362 -1.76556e-031 3.18055e-015 3.18055e-015 0.6151 -8.0947 -3.564 3.18055e-015 4.77083e-015 3.18055e-015 0.4882 -2.341 -0.6462 0.0145566 0.00367552 -0.00326114 0.3574 -1.7166 -0.4742 2.38264e-006 4.29195e-006 -1.46887e-006 1.4199 -1.8761 1.4221 3.18055e-015 4.77083e-015 3.18055e-015 1.1472 -3.4929 2.6336 -6.36111e-015 3.18055e-015 1.59028e-015 0.8229 -2.3 1.6571 3.18055e-015 1.59028e-015 -2.38542e-015 -9.412 3.9771 -0.7758 -150.77 -57.932 -144.386 -0.7531 -40.938 0 -171.541 70.9247 169.271 -1.77636e-015 -40.1986 -7.10543e-015 2.3228 -11.2813 -13.8873 0 -4.4182 9.239 6.8252e-007 3.54844e-007 3.09579e-006 9.4119 3.9773 -0.7758 152.364 -58.2249 147.556 0.7532 -40.9383 7.10543e-015 172.054 70.0073 -169.725 -1.77636e-015 -40.1986 7.10543e-015 -0.484575 -12.5575 15.2808 0 -4.4182 9.239 0 0 -3.18055e-015 
0.838469 33.0085 15.025 1.34039e-007 30.6723 7.11865e-008 -1.11022e-016 8.7983 -4.7612 0.352877 0.496569 -0.474881 0 8.0291 0.4195 0.709896 0.99016 -0.952866 0 9.9351 -2.2114 0.709896 0.990154 -0.952865 0 22.3885 -0.4656 -4.316e-007 0.29847 3.19667e-007 -0.0001 12.643 3.4389 -4.11359e-007 0.280416 9.97673e-009 2.2603 21.606 7.4023 -21.7986 29.9858 -17.5474 13.5163 -1.1332 -5.0146 58.2355 -22.0528 82.4592 -0.0995 -28.05 -0.2431 -93.4438 -2.64045 9.61455 0.0679 -23.3996 -0.1402 7.18448 -43.4182 -133.482 0.7932 -9.069 2.5189 -8.03372e-006 -1.94386e-006 -1.67237e-006 -0.8272 -3.3923 0.5977 3.18055e-015 -3.18055e-015 3.18055e-015 -0.5649 -2.3158 0.4082 -3.18055e-015 -1.59028e-015 1.59028e-015 0.9159 -9.2044 0.2193 -8.03372e-006 -1.94386e-006 -1.67237e-006 0.0117 -4.1944 -0.0248 -0.0128202 0.00232931 9.03017e-005 0.0071 -2.3249 -0.0142 1.51453e-006 -7.77934e-007 2.23264e-006 0.6113 -8.7231 -2.0637 -8.03372e-006 -1.94386e-006 -1.67237e-006 -0.1927 -3.8059 -0.2383 -0.0160728 0.00300676 0.00086596 -0.1091 -2.1688 -0.1362 6.36111e-015 0 -1.59028e-015 -0.6151 -8.0947 -3.5641 -8.03372e-006 -1.94386e-006 -1.67237e-006 -0.4882 -2.341 -0.6462 -0.0125766 0.00313633 0.00283767 -0.3575 -1.7167 -0.4742 -9.55029e-006 1.22598e-006 -3.90518e-006 -1.42 -1.8761 1.4223 -8.03372e-006 -1.94386e-006 -1.67237e-006 -1.1471 -3.4929 2.6334 3.18055e-015 -3.18055e-015 3.18055e-015 -0.823 -2.3 1.6571 -3.18055e-015 -1.59028e-015 1.59028e-015 -2.2603 21.606 7.4023 19.934 28.0564 12.7564 -13.5187 -1.1334 -5.0155 -55.1492 -25.5471 -78.9919 0.0994 -28.0499 -0.2431 93.2437 -1.40629 -8.29778 -0.0679 -23.3996 -0.1402 -6.96021 -40.1151 134.626 -0.7932 -9.0691 2.5189 6.20279e-006 -3.29203e-007 4.90024e-007 0.8272 -3.3923 0.5977 3.18055e-015 -4.77083e-015 -0 0.565 -2.3158 0.4082 3.18055e-015 0 3.18055e-015 -0.916 -9.2044 0.2193 6.20279e-006 -3.29203e-007 4.90024e-007 -0.0117 -4.1944 -0.0248 0.0129734 0.00232361 -7.63789e-005 -0.0071 -2.3249 -0.0142 -6.36111e-015 0 3.97569e-015 -0.6113 -8.7231 -2.0637 6.20279e-006 -3.29203e-007 4.90024e-007 0.1927 -3.8059 -0.2383 0.0163246 0.00304367 -0.000873835 0.1091 -2.1688 -0.1362 3.18055e-015 -3.18055e-015 -0 0.6151 -8.0947 -3.564 6.20279e-006 -3.29203e-007 4.90024e-007 0.4882 -2.341 -0.6462 0.0145549 0.00366283 -0.00325299 0.3574 -1.7166 -0.4742 3.18055e-015 -1.59028e-015 -4.77083e-015 1.4199 -1.8761 1.4221 6.20279e-006 -3.29203e-007 4.90024e-007 1.1472 -3.4929 2.6336 3.18055e-015 -4.77083e-015 -0 0.8229 -2.3 1.6571 3.18055e-015 0 3.18055e-015 -9.412 3.9771 -0.7758 -137.517 -64.3124 -133.384 -0.7531 -40.938 0 -168.237 77.1175 166.384 1.77636e-015 -40.1986 -7.10543e-015 1.26118 -11.5683 -11.7924 3.55271e-015 -4.4182 9.239 8.17439e-007 4.99446e-007 1.25901e-007 9.4119 3.9773 -0.7758 139.494 -64.9113 136.751 0.7532 -40.9383 0 169.122 76.2629 -167.214 -3.55271e-015 -40.1986 7.10543e-015 0.41659 -12.8153 13.1245 0 -4.4182 9.239 1.63755e-006 -9.30014e-007 2.36333e-007 
0.838474 32.9873 15.8038 -5.46215e-008 28.9246 -1.57642e-007 0 8.7983 -4.7612 0.348181 0.929638 -0.481514 0 8.0291 0.4195 0.704306 1.85629 -0.968865 2.22045e-016 9.9351 -2.2114 0.704305 1.85629 -0.968864 -4.44089e-016 22.3885 -0.4656 -1.89381e-005 0.395081 2.70458e-005 -0.0001 12.643 3.4389 5.58941e-007 0.371389 -6.0823e-007 2.2603 21.606 7.4023 -21.7986 29.9858 -17.5474 13.5163 -1.1332 -5.0146 58.2356 -22.0528 82.4593 -0.0995 -28.05 -0.2431 -92.8271 -2.72235 9.66535 0.0679 -23.3996 -0.1402 6.23951 -43.3965 -133.878 0.7932 -9.069 2.5189 2.46726e-006 -9.16315e-006 -8.22346e-006 -0.8272 -3.3923 0.5977 -1.10348e-031 -1.59028e-015 -3.97569e-015 -0.5649 -2.3158 0.4082 -1.76556e-031 -3.18055e-015 -3.18055e-015 0.9159 -9.2044 0.2193 2.46726e-006 -9.16315e-006 -8.22346e-006 0.0117 -4.1944 -0.0248 -0.0128056 0.00232848 8.81799e-005 0.0071 -2.3249 -0.0142 -3.18055e-015 -3.18055e-015 7.15625e-015 0.6113 -8.7231 -2.0637 2.46726e-006 -9.16315e-006 -8.22346e-006 -0.1927 -3.8059 -0.2383 -0.0160371 0.00299012 0.000864396 -0.1091 -2.1688 -0.1362 3.18055e-015 1.77939e-006 7.95139e-015 -0.6151 -8.0947 -3.5641 2.46726e-006 -9.16315e-006 -8.22346e-006 -0.4882 -2.341 -0.6462 -0.0125981 0.00312907 0.00283031 -0.3575 -1.7167 -0.4742 -1.50207e-006 4.48979e-007 -2.22926e-006 -1.42 -1.8761 1.4223 2.46726e-006 -9.16315e-006 -8.22346e-006 -1.1471 -3.4929 2.6334 -1.10348e-031 -1.59028e-015 -3.97569e-015 -0.823 -2.3 1.6571 -1.76556e-031 -3.18055e-015 -3.18055e-015 -2.2603 21.606 7.4023 19.934 28.0563 12.7565 -13.5187 -1.1334 -5.0155 -55.1492 -25.5471 -78.9919 0.0994 -28.0499 -0.2431 92.6431 -1.49832 -8.3498 -0.0679 -23.3996 -0.1402 -6.03249 -40.1044 135.01 -0.7932 -9.0691 2.5189 -6.36111e-015 -1.59028e-015 -1.59028e-015 0.8272 -3.3923 0.5977 -3.15329e-006 -1.40031e-006 -1.73554e-006 0.565 -2.3158 0.4082 3.18055e-015 -1.59028e-015 -3.18055e-015 -0.916 -9.2044 0.2193 -6.36111e-015 -1.59028e-015 -1.59028e-015 -0.0117 -4.1944 -0.0248 0.012933 0.00230643 -8.8096e-005 -0.0071 -2.3249 -0.0142 -6.36111e-015 -3.18055e-015 -4.77083e-015 -0.6113 -8.7231 -2.0637 -6.36111e-015 -1.59028e-015 -1.59028e-015 0.1927 -3.8059 -0.2383 0.0163385 0.00302752 -0.000868293 0.1091 -2.1688 -0.1362 3.18055e-015 0 -1.59028e-015 0.6151 -8.0947 -3.564 -6.36111e-015 -1.59028e-015 -1.59028e-015 0.4882 -2.341 -0.6462 0.0146086 0.00368281 -0.00327073 0.3574 -1.7166 -0.4742 -0 0 7.95139e-016 1.4199 -1.8761 1.4221 -6.36111e-015 -1.59028e-015 -1.59028e-015 1.1472 -3.4929 2.6336 -3.15329e-006 -1.40031e-006 -1.73554e-006 0.8229 -2.3 1.6571 3.18055e-015 -1.59028e-015 -3.18055e-015 -9.412 3.9771 -0.7758 -132.108 -64.6978 -128.514 -0.7531 -40.938 0 -168.182 77.1748 166.344 1.77636e-015 -40.1986 7.10543e-015 0.512731 -12.3773 -10.6684 0 -4.4182 9.239 -4.92827e-006 2.29755e-006 2.30577e-006 9.4119 3.9773 -0.7758 133.905 -65.411 131.697 0.7532 -40.9383 0 169.074 76.3201 -167.184 -1.77636e-015 -40.1986 -7.10543e-015 1.14414 -13.6561 12.0285 -3.55271e-015 -4.4182 9.239 2.45811e-006 4.80134e-007 3.33345e-007 
